<?xml version="1.0" standalone="no"?>
<!DOCTYPE svg PUBLIC "-//W3C//DTD SVG 20010904//EN"
 "http://www.w3.org/TR/2001/REC-SVG-20010904/DTD/svg10.dtd">
<svg version="1.0" xmlns="http://www.w3.org/2000/svg"
 width="260.000000pt" height="260.000000pt" viewBox="0 0 260.000000 260.000000"
 preserveAspectRatio="xMidYMid meet">
<metadata>
Created by potrace 1.11, written by Peter Selinger 2001-2013
</metadata>
<g transform="translate(0.000000,260.000000) scale(0.100000,-0.100000)"
fill="#000000" stroke="none">
<path d="M576 2558 c-33 -4 -75 -16 -95 -26 l-36 -19 -3 -124 -3 -124 -54 -23
c-74 -33 -164 -117 -197 -185 -45 -91 -50 -133 -51 -441 l0 -289 29 -24 c55
-44 190 -83 337 -97 65 -6 78 -11 71 -30 -3 -7 -23 -13 -49 -14 -25 -1 -66
-10 -92 -20 -45 -17 -48 -20 -48 -54 0 -25 -6 -42 -19 -51 -13 -9 -19 -28 -20
-65 -3 -60 -27 -93 -72 -98 -31 -3 -64 -36 -64 -63 0 -10 7 -26 15 -37 8 -10
15 -37 15 -59 0 -30 -7 -46 -31 -71 -20 -21 -31 -42 -31 -63 -2 -67 70 -117
130 -92 65 27 75 129 15 164 -18 11 -17 91 2 107 8 7 19 26 23 43 8 30 35 57
47 45 3 -3 8 -43 10 -89 11 -195 14 -204 68 -216 15 -3 27 -10 27 -16 0 -6 9
-30 20 -53 20 -40 20 -44 4 -85 -36 -100 -42 -111 -52 -118 -6 -3 -17 -19 -25
-34 -19 -36 -22 -203 -4 -209 7 -3 70 -4 141 -3 113 1 130 3 142 20 31 43 4
94 -52 98 l-29 2 -1 75 c-2 108 -2 109 -24 127 -11 10 -20 27 -20 38 0 20 5
21 55 17 30 -2 68 1 84 6 29 10 29 10 60 -58 l32 -68 -24 -34 c-20 -30 -23
-46 -21 -119 1 -46 2 -89 3 -94 1 -7 49 -11 135 -10 146 1 166 7 166 54 0 39
-14 53 -56 60 l-39 6 -1 85 c0 47 -6 95 -13 107 -13 26 -50 38 -84 29 -21 -5
-27 1 -46 43 -21 43 -22 52 -10 89 9 33 18 42 40 47 44 10 42 0 54 210 4 66 9
131 10 145 2 14 3 34 4 44 1 18 4 17 31 -9 16 -16 30 -35 30 -42 0 -7 9 -29
19 -50 24 -48 22 -86 -7 -110 -15 -12 -25 -33 -29 -60 -5 -37 -2 -46 25 -73
22 -22 40 -30 65 -30 94 0 127 118 48 176 -22 17 -24 82 -3 113 30 45 4 100
-49 104 -34 2 -134 92 -123 109 11 18 -6 55 -29 65 -14 6 -46 15 -73 18 -63
10 -90 23 -75 38 6 6 21 12 34 13 134 8 275 45 339 89 l38 26 -1 290 c-1 308
-7 357 -50 443 -33 68 -116 146 -192 183 l-64 32 0 115 c0 76 -5 121 -12 130
-33 39 -174 60 -295 44z"/>
<path d="M1704 2555 c-121 -26 -149 -52 -146 -137 2 -67 21 -110 58 -135 l25
-16 -68 -36 c-117 -62 -194 -159 -223 -279 -10 -42 -18 -483 -11 -624 2 -37
135 -97 251 -113 85 -12 93 -13 128 -14 25 -1 32 -5 32 -21 0 -11 -6 -20 -12
-21 -43 -1 -106 -13 -134 -25 -30 -13 -34 -19 -34 -51 0 -30 -8 -43 -47 -79
-27 -24 -57 -44 -68 -44 -55 0 -85 -59 -55 -107 24 -40 15 -97 -21 -133 -69
-69 -2 -176 94 -149 25 7 39 19 51 43 23 49 20 74 -14 108 -26 25 -30 37 -27
69 2 21 11 47 20 57 9 10 17 28 17 39 0 11 14 32 30 46 25 23 30 24 31 10 0
-10 2 -38 4 -63 4 -70 18 -283 19 -302 0 -16 19 -29 57 -41 8 -3 21 -23 27
-45 11 -35 10 -45 -11 -91 -13 -28 -26 -49 -28 -46 -3 2 -17 6 -33 9 -22 4
-35 -1 -57 -24 -27 -27 -29 -33 -29 -114 0 -87 -1 -91 -41 -87 -17 2 -46 -27
-49 -49 -4 -26 0 -38 16 -54 12 -13 41 -16 150 -16 l134 0 1 33 c3 103 -2 161
-18 188 -10 16 -20 29 -24 29 -4 0 9 32 27 70 33 67 36 70 62 63 15 -4 51 -6
80 -6 63 2 77 -15 41 -53 -21 -23 -24 -35 -24 -115 0 -72 -3 -89 -15 -90 -55
-3 -80 -21 -80 -60 0 -53 18 -59 168 -59 l137 0 -1 93 c-2 120 -1 113 -26 139
-13 13 -29 39 -36 58 -8 19 -21 54 -29 76 -16 39 -15 44 5 84 12 24 19 46 17
50 -2 4 13 12 35 19 21 6 41 15 44 19 3 5 8 51 11 103 8 126 14 181 20 187 9
9 45 -30 45 -48 0 -10 9 -29 20 -43 30 -38 27 -92 -7 -121 -22 -19 -28 -32
-27 -65 2 -47 16 -69 58 -86 21 -9 38 -10 60 -3 71 24 89 103 36 157 -35 35
-41 80 -16 126 25 48 -4 105 -54 105 -41 0 -67 36 -68 95 0 38 -5 53 -22 67
-17 14 -21 26 -18 49 7 44 -15 57 -132 75 -51 7 -60 12 -60 27 0 10 22 16 83
20 98 8 218 37 279 68 83 42 78 18 77 335 -1 155 -5 304 -10 331 -23 125 -120
245 -240 299 l-60 27 30 21 c16 11 34 29 41 39 16 27 24 140 11 164 -35 67
-287 104 -457 68z"/>
</g>
</svg>
