<?xml version="1.0" standalone="no"?>
<!DOCTYPE svg PUBLIC "-//W3C//DTD SVG 20010904//EN"
 "http://www.w3.org/TR/2001/REC-SVG-20010904/DTD/svg10.dtd">
<svg version="1.0" xmlns="http://www.w3.org/2000/svg"
 width="687.000000pt" height="687.000000pt" viewBox="0 0 687.000000 687.000000"
 preserveAspectRatio="xMidYMid meet">
<metadata>
Created by potrace 1.11, written by Peter Selinger 2001-2013
</metadata>
<g transform="translate(0.000000,687.000000) scale(0.100000,-0.100000)"
fill="#000000" stroke="none">
<path d="M657 6814 c-3 -3 -90 -7 -194 -8 -104 -1 -194 -5 -201 -10 -6 -4 -12
-3 -12 2 0 12 -168 8 -181 -5 -11 -11 -18 -428 -7 -446 4 -6 4 -16 0 -21 -3
-6 -5 -173 -4 -371 1 -198 2 -387 2 -420 -1 -149 -1 -1146 -1 -1285 1 -85 0
-184 -2 -218 -1 -35 1 -66 6 -69 4 -2 5 -8 2 -13 -7 -12 -10 -1758 -3 -1765 3
-3 3 -20 1 -38 -9 -66 -8 -665 1 -659 5 3 6 -1 1 -7 -4 -7 -7 -160 -6 -340 0
-179 0 -423 0 -541 0 -118 0 -251 1 -295 1 -44 3 -114 4 -155 1 -63 4 -75 18
-74 10 1 14 -4 11 -12 -3 -10 0 -12 10 -8 8 3 18 1 21 -5 4 -6 16 -7 29 -3 18
6 82 7 177 2 8 -1 35 0 60 3 25 2 57 0 72 -4 15 -4 30 -4 32 0 6 9 37 8 52 -1
5 -4 29 -3 52 3 23 5 51 5 64 0 13 -4 32 -6 43 -4 19 3 131 5 260 3 58 -1 186
-1 370 1 124 1 137 1 160 0 32 -1 219 -2 233 -1 39 2 51 3 92 1 25 -1 106 -2
180 -2 74 0 149 0 165 0 17 0 80 0 142 1 62 1 116 -1 122 -4 5 -4 12 -3 14 1
5 7 99 8 307 4 25 -1 74 0 108 1 35 2 66 0 68 -4 3 -4 15 -4 27 0 12 5 33 7
47 6 57 -7 207 -7 217 -1 6 4 13 4 17 0 3 -3 57 -5 118 -3 215 5 230 5 235 -3
2 -4 9 -5 14 -1 6 3 67 6 137 5 70 0 145 0 167 0 22 0 47 0 55 0 8 0 67 0 130
0 180 1 231 -1 241 -7 5 -3 9 -2 9 3 0 8 916 10 924 2 3 -2 39 -2 81 1 42 3
79 2 82 -3 2 -4 10 -4 16 0 16 10 187 10 187 0 0 -4 8 -4 18 0 15 7 56 8 197
5 28 -1 92 -1 143 -1 52 0 96 -2 100 -5 3 -3 11 -1 19 6 10 8 17 8 25 0 6 -6
18 -8 27 -3 9 4 155 7 324 7 170 -1 312 1 316 4 11 8 10 450 -1 450 -7 0 -7 4
-1 13 6 7 9 150 9 349 -1 186 2 338 5 338 4 0 4 15 0 33 -5 26 -5 121 -1 282
2 70 -7 1102 -9 1110 -2 6 -2 12 -1 15 1 3 4 49 6 103 2 68 0 96 -7 91 -8 -4
-8 -1 -1 12 7 15 17 2926 11 3299 -1 39 -1 111 0 160 1 94 1 103 -5 275 -2 58
-4 129 -4 158 -1 32 -6 53 -13 53 -62 8 -513 14 -612 9 -16 -1 -136 -1 -265
-1 -129 0 -260 0 -290 -1 -99 0 -1253 0 -1335 1 -44 1 -120 0 -168 -2 -48 -2
-91 1 -94 6 -3 4 -12 6 -21 2 -13 -5 -472 -9 -499 -4 -4 1 -12 1 -18 0 -5 -2
-59 -2 -120 -2 -152 1 -208 1 -458 -2 -119 -1 -217 2 -217 6 0 5 -5 5 -10 2
-18 -11 -80 -14 -74 -3 3 5 -3 4 -15 -4 -14 -8 -24 -9 -31 -2 -6 6 -32 8 -65
4 -31 -3 -58 -4 -60 -1 -3 2 -35 3 -72 2 -200 -5 -373 -6 -373 0 0 3 -20 3
-45 -1 -24 -4 -50 -3 -57 1 -6 4 -19 4 -28 -1 -9 -5 -22 -5 -30 0 -8 5 -18 7
-22 4 -4 -3 -58 -5 -120 -5 -62 0 -129 0 -148 0 -19 -1 -53 -1 -75 -1 -78 1
-143 1 -462 0 -176 0 -325 2 -331 6 -5 3 -12 3 -15 0z"/>
</g>
</svg>
